<svg xmlns="http://www.w3.org/2000/svg" viewBox="0 0 654.94 471.28"><defs><style>.cls-1{fill:#f4e914;}</style></defs><title>liquid</title><g id="Layer_2" data-name="Layer 2"><g id="Layer_1-2" data-name="Layer 1"><path class="cls-1" d="M1.72,320.06c-1.87-13.14-8.34-70,26-118,29-40.63,59.59-36.27,126-80,71.46-47.06,60.61-68.26,108-94,75.92-41.23,207.45-43.13,266,36,30.89,41.75,42.5,107.46,18,154-20.65,39.21-52.41,37.25-126,100-48.83,41.64-41.06,47.8-76,76-29.93,24.16-129,104.11-228,68C59.35,441.5,11.12,386.27,1.72,320.06Z"/><path class="cls-1" d="M463.31,355.27c-.64-4.52-2.87-24.06,8.94-40.58,10-14,20.49-12.47,43.33-27.51,24.57-16.18,20.85-23.48,37.14-32.33,26.11-14.18,71.34-14.83,91.48,12.38,10.62,14.36,14.62,37,6.19,53-7.1,13.49-18,12.81-43.33,34.39-16.79,14.32-14.12,16.44-26.14,26.14-10.29,8.31-44.36,35.8-78.41,23.39C483.13,397,466.54,378,463.31,355.27Z"/></g></g></svg>